<svg width="212" height="153" viewBox="0 0 1600 1600" fill="none" xmlns="http://www.w3.org/2000/svg">
<circle cx="800" cy="800" r="800" fill="url(#paint0_radial_201_26)"/>
<g style="mix-blend-mode:color-dodge" opacity="0.6">
<circle cx="800" cy="800" r="651.975" fill="url(#paint1_radial_201_26)"/>
</g>
<path d="M1205.62 1030.31V1116.44C1205.62 1124.61 1201.43 1132.52 1193.58 1139.99C1191.34 1142.11 1188.78 1144.18 1185.89 1146.31C1180.38 1150.29 1173.73 1154.1 1166.16 1157.81C1163.7 1158.95 1161.14 1160.15 1158.47 1161.24C1149.2 1165.22 1138.74 1168.93 1127.24 1172.26C1124.73 1173.02 1122.22 1173.78 1119.61 1174.49C1106.96 1177.87 1093.22 1180.98 1078.5 1183.59C1076 1184.03 1073.44 1184.52 1070.82 1184.96C1058.77 1186.92 1046.18 1188.72 1033.04 1190.13C1030.48 1190.35 1027.97 1190.68 1025.41 1190.9C1016.64 1191.77 1007.7 1192.48 998.538 1193.08C995.976 1193.3 993.469 1193.46 990.852 1193.62C979.405 1194.22 967.74 1194.6 955.802 1194.82C953.294 1194.82 950.732 1194.88 948.17 1194.88H942.665C931.545 1194.88 920.588 1194.66 909.795 1194.28C907.233 1194.22 904.671 1194.06 902.109 1193.95C891.098 1193.41 880.359 1192.7 869.839 1191.77C867.277 1191.55 864.66 1191.33 862.153 1191.12C854.903 1190.46 847.762 1189.59 840.839 1188.77C838.277 1188.39 835.715 1188.12 833.153 1187.74C824.323 1186.54 815.71 1185.17 807.424 1183.7C804.862 1183.27 802.3 1182.83 799.793 1182.29C792.543 1180.92 785.62 1179.45 778.915 1177.76C776.353 1177.16 773.791 1176.56 771.284 1175.91C762.944 1173.78 755.094 1171.55 747.735 1169.04C745.119 1168.22 742.557 1167.29 740.049 1166.42C732.254 1163.64 725.114 1160.7 718.736 1157.54C716.01 1156.28 713.448 1154.92 710.995 1153.56C704.618 1150.02 699.112 1146.36 694.588 1142.49C691.59 1139.93 688.973 1137.31 686.902 1134.7C682.268 1128.81 679.815 1122.71 679.815 1116.49V1030.36H1205.46L1205.62 1030.31Z" fill="#00A48C"/>
<path d="M1205.62 1030.36C1205.62 1068.74 1087.93 1099.87 942.771 1099.87C797.61 1099.87 679.922 1068.74 679.922 1030.36C679.922 991.989 797.61 960.864 942.771 960.864C1087.93 960.864 1205.62 991.989 1205.62 1030.36Z" fill="#00F6D2"/>
<path d="M1158.58 1021.1C1158.58 1047.48 1061.99 1068.9 942.829 1068.9C823.669 1068.9 727.076 1047.48 727.076 1021.1C727.076 994.715 823.669 973.292 942.829 973.292C1061.99 973.292 1158.58 994.715 1158.58 1021.1Z" fill="#0C4C5D"/>
<path d="M733.672 1032.87C757.329 1012.16 841.984 996.841 942.829 996.841C1043.67 996.841 1128.33 1012.16 1151.99 1032.87C1156.29 1029.11 1158.58 1025.19 1158.58 1021.1C1158.58 994.715 1061.99 973.292 942.829 973.292C823.669 973.292 727.076 994.715 727.076 1021.1C727.076 1025.13 729.366 1029.11 733.672 1032.87Z" fill="#00957F"/>
<path d="M694.806 1068.9V1142.44C691.808 1139.88 689.192 1137.26 687.12 1134.64V1068.9H694.806Z" fill="#00957F"/>
<path d="M718.901 1090.49V1157.48C716.175 1156.23 713.613 1154.87 711.16 1153.5V1090.49H718.901Z" fill="#00957F"/>
<path d="M747.9 1103.74V1169.04C745.283 1168.22 742.721 1167.29 740.214 1166.42V1103.79H747.9V1103.74Z" fill="#00957F"/>
<path d="M779.078 1112.57V1177.71C776.516 1177.11 773.954 1176.51 771.446 1175.85V1112.62H779.078V1112.57Z" fill="#00957F"/>
<path d="M807.535 1121.07V1183.65C804.973 1183.21 802.411 1182.78 799.903 1182.23V1121.07H807.535Z" fill="#00957F"/>
<path d="M841.004 1126.74V1188.77C838.442 1188.39 835.88 1188.12 833.318 1187.74V1126.74H841.004Z" fill="#00957F"/>
<path d="M870 1126.74V1191.77C867.438 1191.55 864.822 1191.33 862.314 1191.12V1126.74H870Z" fill="#00957F"/>
<path d="M909.956 1126.74V1194.28C907.394 1194.22 904.832 1194.06 902.271 1193.95V1126.74H909.956Z" fill="#00957F"/>
<path d="M955.964 1121.07V1194.77C953.457 1194.77 950.895 1194.82 948.333 1194.82V1121.07H955.964Z" fill="#00957F"/>
<path d="M998.702 1112.57V1193.02C996.14 1193.24 993.632 1193.41 991.016 1193.57V1112.57H998.702Z" fill="#00957F"/>
<path d="M1033.15 1112.57V1190.08C1030.59 1190.3 1028.08 1190.63 1025.52 1190.84V1112.57H1033.15Z" fill="#00957F"/>
<path d="M1078.61 1103.74V1183.59C1076.11 1184.03 1073.55 1184.52 1070.93 1184.96V1103.74H1078.61Z" fill="#00957F"/>
<path d="M1127.35 1095.23V1172.26C1124.84 1173.02 1122.33 1173.78 1119.72 1174.49V1095.23H1127.35Z" fill="#00957F"/>
<path d="M1166.21 1074.52V1157.76C1163.76 1158.9 1161.2 1160.1 1158.53 1161.19V1074.46H1166.21V1074.52Z" fill="#00957F"/>
<path d="M1193.63 1060.4V1139.99C1191.39 1142.11 1188.83 1144.18 1185.94 1146.31V1060.4H1193.63Z" fill="#00957F"/>
<g style="mix-blend-mode:multiply">
<path d="M1193.63 1101.94C1191.4 1104.06 1188.83 1106.13 1185.94 1108.26C1180.44 1112.24 1173.79 1116.11 1166.21 1119.76C1163.76 1120.91 1161.2 1122.11 1158.53 1123.25C1149.26 1127.23 1138.79 1130.94 1127.29 1134.21C1124.78 1134.97 1122.28 1135.73 1119.66 1136.44C1107.01 1139.82 1093.28 1142.93 1078.56 1145.55C1076.05 1145.98 1073.49 1146.47 1070.87 1146.91C1058.83 1148.87 1046.23 1150.67 1033.1 1152.09C1030.53 1152.3 1028.03 1152.63 1025.47 1152.85C1016.69 1153.78 1007.75 1154.43 998.592 1155.03C996.03 1155.25 993.522 1155.41 990.906 1155.58C979.459 1156.17 967.793 1156.56 955.856 1156.77C953.348 1156.77 950.786 1156.83 948.224 1156.83H942.719C931.598 1156.83 920.642 1156.61 909.849 1156.23C907.287 1156.17 904.725 1156.01 902.163 1155.9C891.152 1155.36 880.413 1154.65 869.893 1153.72C867.331 1153.5 864.714 1153.29 862.207 1153.07C854.957 1152.41 847.816 1151.54 840.893 1150.72C838.331 1150.34 835.769 1150.07 833.207 1149.69C824.376 1148.49 815.764 1147.13 807.478 1145.6C804.916 1145.16 802.354 1144.73 799.847 1144.18C792.597 1142.82 785.674 1141.35 778.969 1139.66C776.407 1139.06 773.845 1138.46 771.338 1137.8C762.998 1135.68 755.148 1133.44 747.789 1130.94C745.173 1130.12 742.611 1129.19 740.103 1128.32C732.308 1125.54 725.167 1122.6 718.79 1119.43C716.064 1118.18 713.502 1116.82 711.049 1115.46C704.671 1111.91 699.166 1108.26 694.641 1104.39C691.643 1101.83 689.027 1099.21 686.955 1096.6C682.322 1090.71 679.869 1084.66 679.869 1078.39V1116.44C679.869 1122.65 682.322 1128.76 686.955 1134.64C689.081 1137.26 691.643 1139.88 694.641 1142.44C699.166 1146.25 704.617 1149.96 711.049 1153.5C713.502 1154.87 716.064 1156.23 718.79 1157.48C725.167 1160.64 732.308 1163.59 740.103 1166.37C742.611 1167.3 745.118 1168.17 747.789 1168.98C755.203 1171.44 763.052 1173.73 771.338 1175.85C773.845 1176.51 776.353 1177.11 778.969 1177.71C785.674 1179.34 792.597 1180.87 799.847 1182.23C802.354 1182.78 804.862 1183.21 807.478 1183.65C815.764 1185.17 824.376 1186.48 833.207 1187.68C835.769 1188.06 838.277 1188.34 840.893 1188.72C847.87 1189.54 854.957 1190.35 862.207 1191.06C864.769 1191.28 867.331 1191.5 869.893 1191.72C880.413 1192.64 891.206 1193.41 902.163 1193.9C904.725 1193.95 907.232 1194.11 909.849 1194.22C920.642 1194.6 931.598 1194.82 942.719 1194.82H948.224C950.786 1194.82 953.348 1194.77 955.856 1194.77C967.793 1194.55 979.459 1194.17 990.906 1193.57C993.468 1193.41 996.03 1193.24 998.592 1193.02C1007.75 1192.42 1016.69 1191.72 1025.47 1190.84C1028.03 1190.63 1030.53 1190.3 1033.1 1190.08C1046.23 1188.66 1058.83 1186.86 1070.87 1184.9C1073.43 1184.47 1076.05 1183.98 1078.56 1183.54C1093.28 1180.92 1107.01 1177.82 1119.66 1174.44C1122.22 1173.67 1124.78 1172.91 1127.29 1172.2C1138.79 1168.88 1149.26 1165.22 1158.53 1161.19C1161.2 1160.05 1163.76 1158.85 1166.21 1157.76C1173.79 1154.05 1180.44 1150.23 1185.94 1146.25C1188.78 1144.13 1191.4 1142.06 1193.63 1139.93C1201.48 1132.46 1205.68 1124.61 1205.68 1116.38V1078.33C1205.68 1086.51 1201.48 1094.41 1193.63 1101.88V1101.94Z" fill="#EBDEDE"/>
</g>
<path d="M1183 925.759V1011.89C1183 1020.06 1178.8 1027.97 1170.95 1035.43C1168.72 1037.56 1166.16 1039.63 1163.27 1041.76C1157.76 1045.74 1151.11 1049.55 1143.54 1053.26C1141.08 1054.4 1138.52 1055.6 1135.85 1056.69C1126.64 1060.67 1116.12 1064.38 1104.62 1067.7C1102.11 1068.47 1099.55 1069.23 1096.98 1069.94C1084.34 1073.32 1070.6 1076.43 1055.88 1079.04C1053.38 1079.48 1050.81 1079.97 1048.2 1080.41C1036.15 1082.37 1023.56 1084.17 1010.37 1085.58C1007.86 1085.8 1005.3 1086.13 1002.73 1086.35C993.959 1087.27 985.019 1087.93 975.861 1088.53C973.299 1088.75 970.792 1088.91 968.175 1089.07C956.728 1089.67 945.063 1090.05 933.125 1090.27C930.618 1090.27 928.056 1090.33 925.439 1090.33H919.988C908.868 1090.33 897.911 1090.11 887.118 1089.73C884.556 1089.67 881.994 1089.51 879.432 1089.45C868.421 1088.91 857.683 1088.2 847.162 1087.27C844.546 1087.06 841.984 1086.84 839.476 1086.62C832.226 1085.97 825.085 1085.09 818.163 1084.28C815.601 1083.89 813.039 1083.62 810.477 1083.24C801.646 1082.04 792.979 1080.68 784.748 1079.15C782.131 1078.72 779.624 1078.28 777.116 1077.73C769.866 1076.37 762.998 1074.9 756.293 1073.21C753.731 1072.61 751.169 1072.01 748.662 1071.36C740.322 1069.23 732.472 1067 725.059 1064.49C722.442 1063.67 719.88 1062.74 717.373 1061.87C709.578 1059.09 702.437 1056.15 696.059 1052.99C693.334 1051.73 690.826 1050.37 688.319 1049.01C681.941 1045.46 676.435 1041.81 671.966 1037.94C668.967 1035.38 666.351 1032.76 664.225 1030.15C659.592 1024.26 657.139 1018.21 657.139 1011.94V925.814H1182.78L1183 925.759Z" fill="#00A48C"/>
<path d="M920.152 995.314C1065.29 995.314 1182.95 964.197 1182.95 925.813C1182.95 887.429 1065.29 856.312 920.152 856.312C775.015 856.312 657.357 887.429 657.357 925.813C657.357 964.197 775.015 995.314 920.152 995.314Z" fill="#00F6D2"/>
<path d="M1135.9 916.547C1135.9 942.93 1039.31 964.352 920.151 964.352C800.991 964.352 704.398 942.93 704.398 916.547C704.398 890.164 800.991 868.741 920.151 868.741C1039.31 868.741 1135.9 890.164 1135.9 916.547Z" fill="#0C4C5D"/>
<path d="M711.048 928.321C734.705 907.607 819.36 892.29 920.205 892.29C1021.05 892.29 1105.7 907.607 1129.36 928.321C1133.67 924.56 1135.96 920.635 1135.96 916.601C1135.96 890.218 1039.36 868.796 920.205 868.796C801.045 868.796 704.452 890.218 704.452 916.601C704.452 920.635 706.742 924.614 711.048 928.321Z" fill="#00957F"/>
<path d="M672.183 964.353V1037.89C669.185 1035.33 666.568 1032.71 664.442 1030.09V964.353H672.183Z" fill="#00957F"/>
<path d="M696.276 985.938V1052.93C693.55 1051.68 691.043 1050.32 688.535 1048.95V985.938H696.276Z" fill="#00957F"/>
<path d="M725.223 999.185V1064.49C722.607 1063.67 720.045 1062.74 717.537 1061.87V999.239H725.223V999.185Z" fill="#00957F"/>
<path d="M756.459 1008.02V1073.16C753.897 1072.56 751.335 1071.96 748.827 1071.3V1008.07H756.459V1008.02Z" fill="#00957F"/>
<path d="M784.912 1016.52V1079.1C782.295 1078.66 779.788 1078.22 777.28 1077.68V1016.52H784.912Z" fill="#00957F"/>
<path d="M818.328 1022.19V1084.22C815.766 1083.84 813.204 1083.57 810.642 1083.19V1022.19H818.328Z" fill="#00957F"/>
<path d="M847.382 1022.19V1087.22C844.766 1087 842.204 1086.78 839.696 1086.56V1022.19H847.382Z" fill="#00957F"/>
<path d="M887.338 1022.19V1089.73C884.776 1089.67 882.214 1089.51 879.652 1089.45V1022.24H887.338V1022.19Z" fill="#00957F"/>
<path d="M933.289 1016.52V1090.22C930.782 1090.22 928.22 1090.27 925.604 1090.27V1016.46H933.289V1016.52Z" fill="#00957F"/>
<path d="M976.024 1008.02V1088.47C973.462 1088.69 970.954 1088.85 968.338 1089.02V1008.02H976.024Z" fill="#00957F"/>
<path d="M1010.48 1008.02V1085.53C1007.97 1085.75 1005.41 1086.07 1002.84 1086.29V1008.02H1010.48Z" fill="#00957F"/>
<path d="M1055.99 999.185V1079.04C1053.48 1079.48 1050.92 1079.97 1048.3 1080.41V999.185H1055.99Z" fill="#00957F"/>
<path d="M1104.67 990.681V1067.7C1102.16 1068.47 1099.6 1069.23 1097.04 1069.94V990.681H1104.67Z" fill="#00957F"/>
<path d="M1143.59 969.967V1053.2C1141.14 1054.35 1138.58 1055.55 1135.9 1056.64V969.913H1143.59V969.967Z" fill="#00957F"/>
<path d="M1170.95 955.849V1035.43C1168.72 1037.56 1166.15 1039.63 1163.27 1041.76V955.903H1170.95V955.849Z" fill="#00957F"/>
<g style="mix-blend-mode:multiply">
<path d="M1170.95 997.331C1168.72 999.457 1166.16 1001.53 1163.27 1003.65C1157.76 1007.63 1151.11 1011.5 1143.54 1015.16C1141.08 1016.3 1138.52 1017.5 1135.85 1018.59C1126.64 1022.57 1116.12 1026.28 1104.62 1029.6C1102.11 1030.36 1099.55 1031.13 1096.98 1031.84C1084.34 1035.22 1070.6 1038.32 1055.88 1040.94C1053.38 1041.38 1050.81 1041.87 1048.2 1042.3C1036.15 1044.26 1023.56 1046.06 1010.37 1047.48C1007.86 1047.7 1005.3 1048.03 1002.73 1048.24C993.959 1049.12 985.019 1049.82 975.861 1050.42C973.299 1050.64 970.792 1050.81 968.175 1050.97C956.728 1051.57 945.063 1051.95 933.125 1052.17C930.618 1052.17 928.056 1052.22 925.439 1052.22H919.988C908.868 1052.22 897.911 1052.01 887.118 1051.62C884.556 1051.57 881.994 1051.41 879.432 1051.3C868.421 1050.75 857.683 1050.04 847.162 1049.12C844.546 1048.9 841.984 1048.68 839.476 1048.46C832.226 1047.81 825.085 1046.94 818.163 1046.12C815.601 1045.74 813.039 1045.46 810.477 1045.08C801.646 1043.88 792.979 1042.52 784.748 1040.99C782.131 1040.56 779.624 1040.07 777.116 1039.58C769.866 1038.21 762.998 1036.74 756.293 1035.05C753.731 1034.45 751.169 1033.85 748.662 1033.14C740.322 1031.02 732.472 1028.78 725.059 1026.28C722.442 1025.46 719.88 1024.53 717.373 1023.66C709.578 1020.88 702.437 1017.94 696.059 1014.77C693.334 1013.52 690.826 1012.16 688.319 1010.8C681.941 1007.25 676.435 1003.55 671.966 999.73C668.967 997.168 666.351 994.551 664.225 991.935C659.592 986.047 657.139 979.997 657.139 973.728V1011.78C657.139 1017.99 659.592 1024.1 664.225 1029.98C666.351 1032.6 668.913 1035.22 671.966 1037.78C676.49 1041.59 681.941 1045.3 688.319 1048.84C690.772 1050.21 693.334 1051.57 696.059 1052.82C702.437 1055.98 709.578 1058.93 717.373 1061.71C719.88 1062.63 722.388 1063.51 725.059 1064.32C732.472 1066.83 740.322 1069.07 748.662 1071.19C751.169 1071.85 753.677 1072.45 756.293 1073.05C762.998 1074.68 769.921 1076.21 777.116 1077.57C779.624 1078.12 782.131 1078.55 784.748 1078.99C793.033 1080.51 801.646 1081.82 810.477 1083.08C812.984 1083.46 815.546 1083.73 818.163 1084.11C825.14 1084.93 832.226 1085.75 839.476 1086.46C842.038 1086.67 844.6 1086.89 847.162 1087.11C857.683 1088.04 868.476 1088.75 879.432 1089.29C881.994 1089.34 884.502 1089.51 887.118 1089.56C897.911 1089.94 908.813 1090.16 919.988 1090.16H925.439C928.001 1090.16 930.563 1090.11 933.125 1090.11C945.063 1089.89 956.728 1089.51 968.175 1088.91C970.792 1088.75 973.299 1088.58 975.861 1088.36C985.019 1087.76 993.959 1087.11 1002.73 1086.18C1005.3 1085.97 1007.8 1085.64 1010.37 1085.42C1023.5 1084 1036.15 1082.2 1048.2 1080.24C1050.76 1079.81 1053.38 1079.31 1055.88 1078.88C1070.6 1076.26 1084.28 1073.16 1096.98 1069.78C1099.55 1069.01 1102.11 1068.25 1104.62 1067.54C1116.12 1064.22 1126.58 1060.56 1135.85 1056.53C1138.52 1055.38 1141.08 1054.19 1143.54 1053.1C1151.11 1049.39 1157.71 1045.57 1163.27 1041.59C1166.1 1039.47 1168.72 1037.4 1170.95 1035.27C1178.8 1027.8 1183 1019.95 1183 1011.72V973.674C1183 981.85 1178.8 989.754 1170.95 997.222V997.331Z" fill="#EBDEDE"/>
</g>
<path d="M1205.62 815.975V902.102C1205.62 910.278 1201.43 918.182 1193.58 925.65C1191.34 927.722 1188.78 929.848 1185.89 931.973C1180.38 935.953 1173.73 939.823 1166.16 943.475C1163.7 944.62 1161.14 945.819 1158.47 946.964C1149.2 950.943 1138.74 954.65 1127.24 957.92C1124.73 958.684 1122.22 959.447 1119.61 960.21C1106.96 963.59 1093.22 966.697 1078.5 969.313C1076 969.749 1073.44 970.24 1070.82 970.676C1058.77 972.638 1046.18 974.437 1033.04 975.854C1030.48 976.072 1027.97 976.399 1025.41 976.618C1016.64 977.544 1007.7 978.198 998.538 978.798C995.976 979.016 993.469 979.18 990.852 979.343C979.405 979.943 967.74 980.324 955.802 980.542C953.294 980.542 950.732 980.597 948.17 980.597H942.665C931.545 980.597 920.588 980.379 909.795 979.997C907.233 979.943 904.671 979.779 902.109 979.67C891.098 979.125 880.359 978.416 869.839 977.49C867.277 977.272 864.66 977.054 862.153 976.836C854.903 976.181 847.762 975.309 840.839 974.492C838.277 974.11 835.715 973.838 833.153 973.456C824.323 972.257 815.71 970.894 807.424 969.368C804.862 968.932 802.3 968.495 799.793 967.95C792.543 966.588 785.62 965.116 778.915 963.426C776.353 962.826 773.791 962.227 771.284 961.573C762.944 959.447 755.094 957.212 747.735 954.704C745.119 953.887 742.557 952.96 740.049 952.088C732.254 949.308 725.114 946.364 718.736 943.203C716.01 941.949 713.448 940.586 710.995 939.223C704.618 935.68 699.112 932.028 694.588 928.158C691.59 925.596 688.973 922.979 686.902 920.363C682.268 914.476 679.815 908.425 679.815 902.156V816.03H1205.46L1205.62 815.975Z" fill="#00A48C"/>
<path d="M1205.62 816.029C1205.62 854.404 1087.93 885.53 942.771 885.53C797.61 885.53 679.922 854.404 679.922 816.029C679.922 777.654 797.61 746.528 942.771 746.528C1087.93 746.528 1205.62 777.654 1205.62 816.029Z" fill="#00F6D2"/>
<path d="M1158.58 806.762C1158.58 833.146 1061.99 854.568 942.829 854.568C823.669 854.568 727.076 833.2 727.076 806.762C727.076 780.325 823.669 758.957 942.829 758.957C1061.99 758.957 1158.58 780.379 1158.58 806.762Z" fill="#0C4C5D"/>
<path d="M733.672 818.537C757.329 797.823 841.984 782.505 942.829 782.505C1043.67 782.505 1128.33 797.823 1151.99 818.537C1156.29 814.776 1158.58 810.851 1158.58 806.762C1158.58 780.379 1061.99 758.957 942.829 758.957C823.669 758.957 727.076 780.379 727.076 806.762C727.076 810.796 729.366 814.776 733.672 818.537Z" fill="#00957F"/>
<path d="M694.806 854.568V928.103C691.808 925.541 689.192 922.924 687.12 920.308V854.568H694.806Z" fill="#00957F"/>
<path d="M718.901 876.154V943.148C716.175 941.894 713.613 940.531 711.16 939.168V876.154H718.901Z" fill="#00957F"/>
<path d="M747.9 889.401V954.704C745.283 953.887 742.721 952.96 740.214 952.088V889.455H747.9V889.401Z" fill="#00957F"/>
<path d="M779.078 898.231V963.371C776.516 962.772 773.954 962.172 771.446 961.518V898.286H779.078V898.231Z" fill="#00957F"/>
<path d="M807.535 906.735V969.313C804.973 968.877 802.411 968.44 799.903 967.895V906.735H807.535Z" fill="#00957F"/>
<path d="M841.004 912.404V974.437C838.442 974.055 835.88 973.783 833.318 973.401V912.404H841.004Z" fill="#00957F"/>
<path d="M870 912.404V977.435C867.438 977.217 864.822 976.999 862.314 976.781V912.404H870Z" fill="#00957F"/>
<path d="M909.956 912.404V979.942C907.394 979.888 904.832 979.724 902.271 979.615V912.404H909.956Z" fill="#00957F"/>
<path d="M955.964 906.735V980.433C953.457 980.433 950.895 980.487 948.333 980.487V906.735H955.964Z" fill="#00957F"/>
<path d="M998.702 898.231V978.689C996.14 978.907 993.632 979.07 991.016 979.234V898.231H998.702Z" fill="#00957F"/>
<path d="M1033.15 898.231V975.745C1030.59 975.963 1028.08 976.29 1025.52 976.508V898.231H1033.15Z" fill="#00957F"/>
<path d="M1078.61 889.401V969.258C1076.11 969.695 1073.55 970.185 1070.93 970.621V889.401H1078.61Z" fill="#00957F"/>
<path d="M1127.35 880.897V957.92C1124.84 958.683 1122.33 959.446 1119.72 960.209V880.951H1127.35V880.897Z" fill="#00957F"/>
<path d="M1166.21 860.183V943.421C1163.76 944.565 1161.2 945.765 1158.53 946.909V860.183H1166.21Z" fill="#00957F"/>
<path d="M1193.63 846.064V925.65C1191.39 927.721 1188.83 929.847 1185.94 931.973V846.064H1193.63Z" fill="#00957F"/>
<g style="mix-blend-mode:multiply">
<path d="M1193.63 887.602C1191.4 889.728 1188.83 891.799 1185.94 893.925C1180.44 897.904 1173.79 901.72 1166.21 905.427C1163.76 906.571 1161.2 907.771 1158.53 908.915C1149.26 912.895 1138.79 916.601 1127.29 919.926C1124.78 920.69 1122.28 921.398 1119.66 922.161C1107.01 925.541 1093.28 928.648 1078.56 931.265C1076.05 931.701 1073.49 932.137 1070.87 932.627C1058.83 934.59 1046.23 936.389 1033.1 937.806C1030.53 938.024 1028.03 938.351 1025.47 938.569C1016.69 939.441 1007.75 940.15 998.592 940.749C996.03 940.967 993.522 941.131 990.906 941.294C979.459 941.894 967.793 942.276 955.856 942.494C953.348 942.494 950.786 942.548 948.224 942.548H942.719C931.598 942.548 920.642 942.33 909.849 941.949C907.287 941.894 904.725 941.731 902.163 941.622C891.152 941.076 880.413 940.368 869.893 939.441C867.331 939.223 864.714 939.005 862.207 938.787C854.957 938.133 847.816 937.261 840.893 936.443C838.331 936.061 835.769 935.789 833.207 935.407C824.376 934.208 815.764 932.845 807.478 931.374C804.916 930.937 802.354 930.447 799.847 929.956C792.597 928.594 785.674 927.122 778.969 925.432C776.407 924.832 773.845 924.233 771.338 923.524C762.998 921.398 755.148 919.163 747.789 916.71C745.173 915.893 742.611 914.966 740.103 914.094C732.308 911.314 725.167 908.37 718.79 905.209C716.064 903.955 713.502 902.592 711.049 901.229C704.671 897.686 699.166 894.034 694.641 890.164C691.643 887.602 689.027 884.985 686.955 882.369C682.322 876.482 679.869 870.431 679.869 864.162V902.21C679.869 908.479 682.322 914.53 686.955 920.417C689.081 923.033 691.643 925.704 694.641 928.212C699.166 932.028 704.617 935.734 711.049 939.278C713.502 940.64 716.064 942.003 718.79 943.257C725.167 946.418 732.308 949.362 740.103 952.142C742.611 953.069 745.118 953.941 747.789 954.759C755.203 957.266 763.052 959.501 771.338 961.627C773.845 962.281 776.353 962.881 778.969 963.48C785.674 965.116 792.597 966.642 799.847 968.005C802.354 968.55 804.862 968.986 807.478 969.422C815.764 970.948 824.376 972.256 833.207 973.51C835.769 973.892 838.277 974.164 840.893 974.546C847.87 975.364 854.957 976.181 862.207 976.89C864.769 977.108 867.331 977.326 869.893 977.544C880.413 978.471 891.206 979.179 902.163 979.724C904.725 979.833 907.232 979.942 909.849 980.051C920.642 980.433 931.598 980.651 942.719 980.651H948.224C950.786 980.651 953.348 980.597 955.856 980.597C967.793 980.378 979.459 979.997 990.906 979.397C993.468 979.234 996.03 979.07 998.592 978.852C1007.75 978.253 1016.69 977.598 1025.47 976.672C1028.03 976.454 1030.53 976.127 1033.1 975.909C1046.23 974.491 1058.83 972.693 1070.87 970.73C1073.43 970.294 1076.05 969.803 1078.56 969.367C1093.28 966.751 1107.01 963.644 1119.66 960.264C1122.22 959.501 1124.78 958.738 1127.29 957.975C1138.79 954.65 1149.26 950.997 1158.53 947.018C1161.2 945.873 1163.76 944.674 1166.21 943.529C1173.79 939.877 1180.44 936.007 1185.94 932.028C1188.78 929.902 1191.4 927.83 1193.63 925.704C1201.48 918.237 1205.68 910.333 1205.68 902.156V864.108C1205.68 872.284 1201.48 880.188 1193.63 887.656V887.602Z" fill="#EBDEDE"/>
</g>
<path d="M1233.97 711.424V797.55C1233.97 805.727 1229.77 813.631 1221.92 821.099C1219.69 823.225 1217.07 825.296 1214.24 827.422C1208.73 831.401 1202.08 835.272 1194.5 838.924C1192.05 840.069 1189.49 841.268 1186.82 842.412C1177.55 846.392 1167.09 850.098 1155.58 853.424C1153.08 854.187 1150.57 854.95 1147.95 855.658C1135.31 859.038 1121.57 862.145 1106.85 864.762C1104.34 865.198 1101.78 865.688 1099.17 866.125C1087.12 868.087 1074.53 869.886 1061.39 871.303C1058.83 871.521 1056.32 871.848 1053.76 872.066C1044.98 872.938 1036.04 873.647 1026.88 874.247C1024.38 874.465 1021.82 874.628 1019.25 874.792C1007.81 875.391 996.141 875.773 984.203 875.991C981.641 875.991 979.134 876.045 976.517 876.045H971.011C959.891 876.045 948.935 875.827 938.142 875.446C935.58 875.391 933.018 875.228 930.51 875.119C919.499 874.574 908.761 873.865 898.24 872.938C895.678 872.72 893.061 872.502 890.554 872.284C883.304 871.63 876.163 870.758 869.24 869.94C866.678 869.559 864.116 869.286 861.554 868.905C852.724 867.705 844.057 866.343 835.826 864.816C833.264 864.38 830.702 863.944 828.194 863.399C820.944 862.036 814.076 860.564 807.371 858.875C804.809 858.275 802.247 857.675 799.74 856.967C791.399 854.841 783.55 852.606 776.191 850.098C773.575 849.281 771.013 848.354 768.56 847.482C760.765 844.702 753.624 841.758 747.246 838.597C744.52 837.343 742.013 835.98 739.56 834.617C733.182 831.074 727.677 827.368 723.207 823.552C720.154 820.99 717.592 818.373 715.521 815.757C710.888 809.87 708.435 803.819 708.435 797.55V711.424H1234.08H1233.97Z" fill="#00A48C"/>
<path d="M1233.97 711.478C1233.97 749.854 1116.28 780.979 971.119 780.979C825.958 780.979 708.27 749.854 708.27 711.478C708.27 673.103 825.958 641.978 971.119 641.978C1116.28 641.978 1233.97 673.103 1233.97 711.478Z" fill="#00F6D2"/>
<path d="M1186.87 702.212C1186.87 728.595 1090.28 750.017 971.116 750.017C851.956 750.017 755.363 728.595 755.363 702.212C755.363 675.829 851.956 654.406 971.116 654.406C1090.28 654.406 1186.87 675.829 1186.87 702.212Z" fill="#0C4C5D"/>
<path d="M761.959 713.986C785.617 693.272 870.271 677.955 971.116 677.955C1071.96 677.955 1156.61 693.272 1180.27 713.986C1184.58 710.225 1186.87 706.3 1186.87 702.266C1186.87 675.883 1090.28 654.461 971.116 654.461C851.956 654.461 755.363 675.883 755.363 702.266C755.363 706.3 757.653 710.279 761.959 713.986Z" fill="#00957F"/>
<path d="M723.099 750.017V823.552C720.046 820.99 717.484 818.373 715.413 815.757V750.017H723.099Z" fill="#00957F"/>
<path d="M747.192 771.604V838.597C744.466 837.343 741.959 835.98 739.506 834.618V771.604H747.192Z" fill="#00957F"/>
<path d="M776.192 784.849V850.153C773.576 849.335 771.014 848.408 768.561 847.536V784.904H776.192V784.849Z" fill="#00957F"/>
<path d="M807.371 793.68V858.82C804.809 858.22 802.247 857.621 799.739 856.912V793.68H807.371Z" fill="#00957F"/>
<path d="M835.877 802.184V864.762C833.315 864.326 830.753 863.89 828.245 863.345V802.184H835.877Z" fill="#00957F"/>
<path d="M869.292 807.853V869.885C866.73 869.504 864.168 869.231 861.606 868.85V807.853H869.292Z" fill="#00957F"/>
<path d="M898.347 807.853V872.884C895.785 872.665 893.169 872.447 890.661 872.229V807.853H898.347Z" fill="#00957F"/>
<path d="M938.249 807.853V875.391C935.687 875.336 933.125 875.173 930.617 875.064V807.853H938.249Z" fill="#00957F"/>
<path d="M984.254 802.184V875.882C981.692 875.882 979.185 875.936 976.568 875.936V802.184H984.254Z" fill="#00957F"/>
<path d="M1026.99 793.68V874.137C1024.49 874.355 1021.92 874.519 1019.36 874.682V793.68H1026.99Z" fill="#00957F"/>
<path d="M1061.44 793.68V871.194C1058.88 871.412 1056.37 871.739 1053.81 871.957V793.68H1061.44Z" fill="#00957F"/>
<path d="M1106.9 784.849V864.707C1104.4 865.143 1101.83 865.634 1099.22 866.07V784.849H1106.9Z" fill="#00957F"/>
<path d="M1155.64 776.346V853.369C1153.13 854.132 1150.62 854.896 1148 855.604V776.346H1155.64Z" fill="#00957F"/>
<path d="M1194.5 755.632V838.869C1192.05 840.014 1189.49 841.213 1186.82 842.358V755.632H1194.5Z" fill="#00957F"/>
<path d="M1221.92 741.514V821.099C1219.69 823.225 1217.07 825.296 1214.24 827.422V741.568H1221.92V741.514Z" fill="#00957F"/>
<g style="mix-blend-mode:multiply">
<path d="M1221.92 783.051C1219.69 785.177 1217.07 787.248 1214.24 789.374C1208.73 793.353 1202.08 797.169 1194.5 800.876C1192.05 802.021 1189.49 803.22 1186.82 804.31C1177.55 808.289 1167.09 811.996 1155.58 815.267C1153.08 816.03 1150.57 816.793 1147.95 817.502C1135.31 820.881 1121.57 823.988 1106.85 826.605C1104.34 827.041 1101.78 827.532 1099.17 827.968C1087.12 829.93 1074.53 831.729 1061.39 833.146C1058.83 833.364 1056.32 833.691 1053.76 833.909C1044.98 834.781 1036.04 835.49 1026.88 836.09C1024.38 836.308 1021.82 836.471 1019.25 836.635C1007.81 837.234 996.141 837.616 984.203 837.834C981.641 837.834 979.134 837.889 976.517 837.889H971.011C959.891 837.889 948.935 837.67 938.142 837.289C935.58 837.234 933.018 837.071 930.51 837.016C919.499 836.471 908.761 835.763 898.24 834.836C895.678 834.618 893.061 834.4 890.554 834.182C883.304 833.528 876.163 832.656 869.24 831.838C866.678 831.456 864.116 831.184 861.554 830.802C852.724 829.603 844.057 828.24 835.826 826.714C833.264 826.278 830.702 825.842 828.194 825.297C820.944 823.934 814.076 822.462 807.371 820.772C804.809 820.173 802.247 819.573 799.74 818.919C791.399 816.793 783.55 814.558 776.191 812.051C773.575 811.233 771.013 810.306 768.56 809.434C760.765 806.654 753.624 803.71 747.246 800.549C744.52 799.295 742.013 797.932 739.56 796.57C733.182 793.026 727.677 789.374 723.207 785.504C720.154 782.942 717.592 780.325 715.521 777.709C710.888 771.822 708.435 765.771 708.435 759.502V797.551C708.435 803.819 710.888 809.87 715.521 815.757C717.592 818.374 720.209 820.99 723.207 823.552C727.731 827.368 733.182 831.075 739.56 834.618C742.013 835.981 744.575 837.343 747.246 838.597C753.624 841.759 760.765 844.702 768.56 847.482C771.067 848.354 773.575 849.281 776.191 850.099C783.604 852.606 791.454 854.841 799.74 856.967C802.247 857.621 804.755 858.275 807.371 858.875C814.076 860.51 820.999 862.037 828.194 863.399C830.702 863.945 833.264 864.381 835.826 864.817C844.111 866.343 852.724 867.706 861.554 868.905C864.116 869.287 866.624 869.559 869.24 869.941C876.218 870.758 883.304 871.576 890.554 872.285C893.116 872.503 895.678 872.721 898.24 872.939C908.761 873.865 919.554 874.574 930.51 875.119C933.018 875.174 935.58 875.337 938.142 875.446C948.935 875.828 959.891 876.046 971.011 876.046H976.517C979.079 876.046 981.641 875.991 984.203 875.991C996.141 875.773 1007.81 875.392 1019.25 874.792C1021.82 874.629 1024.38 874.52 1026.88 874.247C1036.04 873.647 1044.98 872.993 1053.76 872.067C1056.32 871.849 1058.83 871.521 1061.39 871.303C1074.53 869.886 1087.12 868.087 1099.17 866.125C1101.73 865.689 1104.34 865.198 1106.85 864.762C1121.57 862.146 1135.31 859.039 1147.95 855.659C1150.51 854.896 1153.08 854.133 1155.58 853.424C1167.09 850.099 1177.55 846.447 1186.82 842.413C1189.49 841.268 1192.05 840.069 1194.5 838.924C1202.08 835.217 1208.68 831.402 1214.24 827.422C1217.07 825.297 1219.69 823.225 1221.92 821.099C1229.77 813.631 1233.97 805.782 1233.97 797.551V759.502C1233.97 767.679 1229.77 775.583 1221.92 783.051Z" fill="#EBDEDE"/>
</g>
<path d="M1119.55 683.296C1119.55 709.679 1022.96 731.102 903.798 731.102C784.638 731.102 688.046 709.679 688.046 683.296C688.046 656.913 784.638 635.491 903.798 635.491C1022.96 635.491 1119.55 656.913 1119.55 683.296Z" fill="#0C4C5D"/>
<path d="M694.695 695.071C718.353 674.357 803.008 659.039 903.852 659.039C1004.7 659.039 1089.35 674.357 1113.01 695.071C1117.31 691.309 1119.6 687.385 1119.6 683.351C1119.6 656.968 1023.01 635.545 903.852 635.545C784.692 635.545 688.1 656.968 688.1 683.351C688.1 687.385 690.389 691.364 694.695 695.071Z" fill="#063644"/>
<path d="M1189.27 582.725V668.851C1189.27 677.028 1185.07 684.932 1177.22 692.4C1174.99 694.471 1172.43 696.597 1169.54 698.723C1164.03 702.702 1157.38 706.573 1149.81 710.225C1147.35 711.37 1144.79 712.569 1142.12 713.713C1132.85 717.693 1122.39 721.399 1110.88 724.67C1108.38 725.433 1105.87 726.196 1103.25 726.96C1090.61 730.339 1076.87 733.446 1062.15 736.063C1059.64 736.499 1057.08 736.989 1054.47 737.426C1042.42 739.388 1029.83 741.187 1016.69 742.604C1014.13 742.822 1011.62 743.149 1009.06 743.367C1000.28 744.294 991.343 744.948 982.186 745.548C979.624 745.766 977.116 745.929 974.5 746.093C963.052 746.692 951.387 747.074 939.449 747.292C936.942 747.292 934.38 747.346 931.818 747.346H926.312C915.192 747.346 904.236 747.128 893.443 746.747C890.881 746.692 888.319 746.529 885.757 746.42C874.745 745.875 864.007 745.166 853.486 744.239C850.924 744.021 848.308 743.803 845.8 743.585C838.55 742.931 831.41 742.059 824.487 741.241C821.925 740.86 819.363 740.587 816.801 740.206C807.97 739.006 799.357 737.644 791.072 736.117C788.51 735.681 785.948 735.245 783.44 734.7C776.191 733.337 769.268 731.865 762.563 730.176C760.001 729.576 757.439 728.976 754.931 728.322C746.591 726.196 738.742 723.961 731.383 721.454C728.766 720.636 726.204 719.71 723.697 718.837C715.902 716.057 708.761 713.114 702.383 709.952C699.658 708.699 697.096 707.336 694.643 705.973C688.265 702.43 682.76 698.778 678.235 694.907C675.237 692.345 672.621 689.729 670.549 687.112C665.916 681.225 663.463 675.175 663.463 668.906V582.779H1189.11L1189.27 582.725Z" fill="#00A48C"/>
<path d="M1189.27 582.779C1189.27 621.154 1071.58 652.28 926.419 652.28C781.257 652.28 663.569 621.154 663.569 582.779C663.569 544.403 781.257 513.278 926.419 513.278C1071.58 513.278 1189.27 544.403 1189.27 582.779Z" fill="#00F6D2"/>
<path d="M1142.23 573.512C1142.23 599.895 1045.63 621.318 926.475 621.318C807.315 621.318 710.723 599.95 710.723 573.512C710.723 547.075 807.315 525.706 926.475 525.706C1045.63 525.706 1142.23 547.129 1142.23 573.512Z" fill="#0C4C5D"/>
<path d="M717.318 585.286C740.976 564.572 825.631 549.255 926.475 549.255C1027.32 549.255 1111.97 564.572 1135.63 585.286C1139.94 581.525 1142.23 577.6 1142.23 573.512C1142.23 547.129 1045.63 525.706 926.475 525.706C807.315 525.706 710.723 547.129 710.723 573.512C710.723 577.546 713.012 581.525 717.318 585.286Z" fill="#063644"/>
<path d="M678.452 621.318V694.853C675.454 692.291 672.837 689.674 670.766 687.058V621.318H678.452Z" fill="#00957F"/>
<path d="M702.547 642.904V709.897C699.822 708.644 697.26 707.281 694.807 705.918V642.904H702.547Z" fill="#00957F"/>
<path d="M731.547 656.15V721.454C728.931 720.636 726.369 719.709 723.861 718.837V656.205H731.547V656.15Z" fill="#00957F"/>
<path d="M762.724 664.981V730.121C760.162 729.521 757.6 728.922 755.093 728.268V665.035H762.724V664.981Z" fill="#00957F"/>
<path d="M791.182 673.484V736.062C788.62 735.626 786.058 735.19 783.551 734.645V673.484H791.182Z" fill="#00957F"/>
<path d="M824.652 679.154V741.186C822.09 740.805 819.528 740.532 816.966 740.151V679.154H824.652Z" fill="#00957F"/>
<path d="M853.653 679.154V744.185C851.091 743.966 848.474 743.748 845.967 743.53V679.154H853.653Z" fill="#00957F"/>
<path d="M893.603 679.154V746.692C891.041 746.637 888.479 746.474 885.917 746.365V679.154H893.603Z" fill="#00957F"/>
<path d="M939.611 673.484V747.182C937.103 747.182 934.541 747.237 931.979 747.237V673.484H939.611Z" fill="#00957F"/>
<path d="M982.348 664.981V745.438C979.786 745.656 977.279 745.82 974.662 745.984V664.981H982.348Z" fill="#00957F"/>
<path d="M1016.8 664.981V742.495C1014.24 742.713 1011.73 743.04 1009.17 743.258V664.981H1016.8Z" fill="#00957F"/>
<path d="M1062.26 656.15V736.008C1059.75 736.444 1057.19 736.935 1054.58 737.371V656.15H1062.26Z" fill="#00957F"/>
<path d="M1110.99 647.646V724.67C1108.49 725.433 1105.98 726.196 1103.36 726.959V647.701H1110.99V647.646Z" fill="#00957F"/>
<path d="M1149.86 626.933V710.17C1147.41 711.315 1144.85 712.514 1142.18 713.659V626.933H1149.86Z" fill="#00957F"/>
<path d="M1177.28 612.814V692.399C1175.04 694.471 1172.48 696.597 1169.59 698.723V612.814H1177.28Z" fill="#00957F"/>
<g style="mix-blend-mode:multiply">
<path d="M1177.28 654.351C1175.04 656.477 1172.48 658.549 1169.59 660.675C1164.09 664.654 1157.44 668.47 1149.86 672.176C1147.41 673.321 1144.84 674.52 1142.17 675.665C1132.91 679.644 1122.44 683.351 1110.94 686.676C1108.43 687.439 1105.92 688.148 1103.31 688.911C1090.66 692.291 1076.92 695.398 1062.21 698.014C1059.7 698.45 1057.14 698.886 1054.52 699.377C1042.47 701.339 1029.88 703.138 1016.74 704.556C1014.18 704.774 1011.67 705.101 1009.11 705.319C1000.34 706.191 991.397 706.899 982.239 707.499C979.677 707.717 977.17 707.881 974.553 708.044C963.106 708.644 951.441 709.025 939.503 709.243C936.996 709.243 934.434 709.298 931.872 709.298H926.366C915.246 709.298 904.289 709.08 893.496 708.698C890.934 708.644 888.372 708.48 885.81 708.371C874.799 707.826 864.061 707.118 853.54 706.191C850.978 705.973 848.362 705.755 845.854 705.537C838.604 704.883 831.463 704.01 824.54 703.193C821.978 702.811 819.416 702.539 816.854 702.157C808.024 700.958 799.411 699.595 791.126 698.123C788.564 697.687 786.002 697.197 783.494 696.706C776.244 695.343 769.321 693.872 762.617 692.182C760.055 691.582 757.493 690.982 754.985 690.274C746.645 688.148 738.796 685.913 731.437 683.46C728.82 682.642 726.258 681.716 723.751 680.844C715.956 678.063 708.815 675.12 702.437 671.958C699.712 670.705 697.15 669.342 694.697 667.979C688.319 664.436 682.813 660.784 678.289 656.913C675.291 654.351 672.674 651.735 670.603 649.118C665.97 643.231 663.517 637.181 663.517 630.912V668.96C663.517 675.229 665.97 681.28 670.603 687.167C672.729 689.783 675.291 692.454 678.289 694.962C682.813 698.777 688.264 702.484 694.697 706.027C697.15 707.39 699.712 708.753 702.437 710.007C708.815 713.168 715.956 716.112 723.751 718.892C726.258 719.819 728.766 720.691 731.437 721.508C738.85 724.016 746.7 726.251 754.985 728.377C757.493 729.031 760 729.63 762.617 730.23C769.321 731.865 776.244 733.392 783.494 734.754C786.002 735.299 788.509 735.736 791.126 736.172C799.411 737.698 808.024 739.006 816.854 740.26C819.416 740.641 821.924 740.914 824.54 741.296C831.518 742.113 838.604 742.931 845.854 743.64C848.416 743.858 850.978 744.076 853.54 744.294C864.061 745.22 874.854 745.929 885.81 746.474C888.372 746.583 890.88 746.692 893.496 746.801C904.289 747.183 915.246 747.401 926.366 747.401H931.872C934.434 747.401 936.996 747.346 939.503 747.346C951.441 747.128 963.106 746.747 974.553 746.147C977.115 745.984 979.677 745.82 982.239 745.602C991.397 745.002 1000.34 744.348 1009.11 743.422C1011.67 743.203 1014.18 742.876 1016.74 742.658C1029.88 741.241 1042.47 739.442 1054.52 737.48C1057.08 737.044 1059.7 736.553 1062.21 736.117C1076.92 733.501 1090.66 730.394 1103.31 727.014C1105.87 726.251 1108.43 725.488 1110.94 724.724C1122.44 721.399 1132.91 717.747 1142.17 713.768C1144.84 712.623 1147.41 711.424 1149.86 710.279C1157.44 706.627 1164.09 702.757 1169.59 698.777C1172.43 696.652 1175.04 694.58 1177.28 692.454C1185.13 684.986 1189.32 677.082 1189.32 668.906V630.857C1189.32 639.034 1185.13 646.938 1177.28 654.406V654.351Z" fill="#EBDEDE"/>
</g>
<path d="M1217.62 478.174V564.3C1217.62 572.477 1213.42 580.381 1205.57 587.849C1203.33 589.975 1200.72 592.046 1197.88 594.172C1192.38 598.151 1185.73 602.021 1178.15 605.674C1175.7 606.818 1173.13 608.017 1170.46 609.162C1161.2 613.141 1150.73 616.848 1139.23 620.173C1136.72 620.936 1134.21 621.7 1131.6 622.408C1118.95 625.788 1105.21 628.895 1090.5 631.512C1087.99 631.948 1085.43 632.438 1082.81 632.874C1070.76 634.837 1058.17 636.635 1045.04 638.053C1042.47 638.271 1039.97 638.598 1037.4 638.816C1028.63 639.688 1019.69 640.397 1010.53 640.996C1008.02 641.214 1005.46 641.378 1002.9 641.541C991.452 642.141 979.786 642.523 967.849 642.741C965.286 642.741 962.779 642.795 960.163 642.795H954.657C943.537 642.795 932.58 642.577 921.787 642.196C919.225 642.141 916.663 641.978 914.156 641.868C903.145 641.323 892.406 640.615 881.885 639.688C879.324 639.47 876.707 639.252 874.2 639.034C866.95 638.38 859.809 637.508 852.886 636.69C850.324 636.308 847.762 636.036 845.2 635.654C836.369 634.455 827.702 633.092 819.471 631.566C816.909 631.13 814.347 630.694 811.84 630.149C804.59 628.786 797.721 627.314 791.017 625.624C788.455 625.025 785.893 624.425 783.385 623.717C775.045 621.591 767.195 619.356 759.837 616.848C757.22 616.031 754.658 615.104 752.205 614.232C744.41 611.452 737.269 608.508 730.892 605.346C728.166 604.093 725.659 602.73 723.206 601.367C716.828 597.824 711.322 594.117 706.852 590.302C703.8 587.74 701.238 585.123 699.166 582.507C694.533 576.619 692.08 570.569 692.08 564.3V478.174H1217.72H1217.62Z" fill="#00A48C"/>
<path d="M1217.61 478.228C1217.61 516.603 1099.93 547.729 954.764 547.729C809.603 547.729 691.915 516.603 691.915 478.228C691.915 439.853 809.603 408.727 954.764 408.727C1099.93 408.727 1217.61 439.853 1217.61 478.228Z" fill="#00F6D2"/>
<path d="M1170.52 468.961C1170.52 495.344 1073.93 516.767 954.768 516.767C835.608 516.767 739.016 495.344 739.016 468.961C739.016 442.578 835.608 421.156 954.768 421.156C1073.93 421.156 1170.52 442.578 1170.52 468.961Z" fill="#0C4C5D"/>
<path d="M745.611 480.736C769.269 460.022 853.924 444.704 954.768 444.704C1055.61 444.704 1140.27 460.022 1163.92 480.736C1168.23 476.975 1170.52 473.05 1170.52 469.016C1170.52 442.633 1073.93 421.21 954.768 421.21C835.608 421.21 739.016 442.633 739.016 469.016C739.016 473.05 741.305 477.029 745.611 480.736Z" fill="#063644"/>
<path d="M706.746 516.767V590.301C703.693 587.739 701.131 585.123 699.06 582.506V516.767H706.746Z" fill="#00957F"/>
<path d="M730.839 538.353V605.347C728.114 604.093 725.606 602.73 723.153 601.367V538.353H730.839Z" fill="#00957F"/>
<path d="M759.839 551.599V616.903C757.223 616.085 754.661 615.158 752.208 614.286V551.654H759.839V551.599Z" fill="#00957F"/>
<path d="M791.017 560.43V625.57C788.455 624.97 785.893 624.37 783.386 623.662V560.43H791.017Z" fill="#00957F"/>
<path d="M819.529 568.934V631.512C816.967 631.076 814.405 630.639 811.897 630.094V568.934H819.529Z" fill="#00957F"/>
<path d="M852.939 574.602V636.635C850.377 636.254 847.815 635.981 845.253 635.6V574.602H852.939Z" fill="#00957F"/>
<path d="M881.994 574.602V639.633C879.432 639.415 876.815 639.197 874.308 638.979V574.602H881.994Z" fill="#00957F"/>
<path d="M921.895 574.602V642.141C919.333 642.086 916.771 641.923 914.264 641.814V574.602H921.895Z" fill="#00957F"/>
<path d="M967.906 568.934V642.632C965.344 642.632 962.836 642.686 960.22 642.686V568.934H967.906Z" fill="#00957F"/>
<path d="M1010.64 560.43V640.887C1008.13 641.105 1005.57 641.269 1003.01 641.432V560.43H1010.64Z" fill="#00957F"/>
<path d="M1045.09 560.43V637.944C1042.53 638.162 1040.02 638.489 1037.46 638.707V560.43H1045.09Z" fill="#00957F"/>
<path d="M1090.55 551.599V631.457C1088.05 631.893 1085.48 632.383 1082.87 632.82V551.599H1090.55Z" fill="#00957F"/>
<path d="M1139.28 543.096V620.119C1136.78 620.882 1134.27 621.645 1131.65 622.354V543.096H1139.28Z" fill="#00957F"/>
<path d="M1178.15 522.381V605.619C1175.7 606.764 1173.13 607.963 1170.46 609.108V522.381H1178.15Z" fill="#00957F"/>
<path d="M1205.57 508.263V587.849C1203.33 589.975 1200.72 592.046 1197.88 594.172V508.318H1205.57V508.263Z" fill="#00957F"/>
<g style="mix-blend-mode:multiply">
<path d="M1205.57 549.801C1203.33 551.927 1200.72 553.998 1197.88 556.124C1192.38 560.103 1185.73 563.919 1178.15 567.626C1175.7 568.77 1173.13 569.969 1170.46 571.06C1161.2 575.039 1150.73 578.746 1139.23 582.016C1136.72 582.779 1134.21 583.543 1131.6 584.251C1118.95 587.631 1105.21 590.738 1090.5 593.354C1087.99 593.791 1085.43 594.281 1082.81 594.717C1070.76 596.68 1058.17 598.478 1045.04 599.896C1042.47 600.114 1039.97 600.441 1037.4 600.659C1028.63 601.531 1019.69 602.24 1010.53 602.839C1008.02 603.057 1005.46 603.221 1002.9 603.384C991.452 603.984 979.786 604.366 967.849 604.584C965.286 604.584 962.779 604.638 960.163 604.638H954.657C943.537 604.638 932.58 604.42 921.787 604.039C919.225 603.984 916.663 603.82 914.156 603.766C903.145 603.221 892.406 602.512 881.885 601.586C879.324 601.367 876.707 601.149 874.2 600.931C866.95 600.277 859.809 599.405 852.886 598.587C850.324 598.206 847.762 597.933 845.2 597.552C836.369 596.353 827.702 594.99 819.471 593.463C816.909 593.027 814.347 592.591 811.84 592.046C804.59 590.683 797.721 589.212 791.017 587.522C788.455 586.922 785.893 586.323 783.385 585.668C775.045 583.543 767.195 581.308 759.837 578.8C757.22 577.982 754.658 577.056 752.205 576.184C744.41 573.404 737.269 570.46 730.892 567.298C728.166 566.045 725.659 564.682 723.206 563.319C716.828 559.776 711.322 556.124 706.852 552.254C703.8 549.692 701.238 547.075 699.166 544.459C694.533 538.571 692.08 532.521 692.08 526.252V564.3C692.08 570.569 694.533 576.62 699.166 582.507C701.238 585.123 703.854 587.74 706.852 590.302C711.377 594.118 716.828 597.824 723.206 601.367C725.659 602.73 728.221 604.093 730.892 605.347C737.269 608.508 744.41 611.452 752.205 614.232C754.713 615.104 757.22 616.031 759.837 616.848C767.25 619.356 775.1 621.591 783.385 623.717C785.893 624.371 788.4 625.025 791.017 625.625C797.721 627.26 804.644 628.786 811.84 630.149C814.347 630.694 816.909 631.13 819.471 631.566C827.757 633.093 836.369 634.455 845.2 635.655C847.762 636.036 850.269 636.309 852.886 636.69C859.863 637.508 866.95 638.326 874.2 639.034C876.762 639.252 879.324 639.47 881.885 639.688C892.406 640.615 903.199 641.324 914.156 641.869C916.663 641.923 919.225 642.087 921.787 642.196C932.58 642.577 943.537 642.795 954.657 642.795H960.163C962.725 642.795 965.286 642.741 967.849 642.741C979.786 642.523 991.452 642.141 1002.9 641.542C1005.46 641.378 1008.02 641.269 1010.53 640.997C1019.69 640.397 1028.63 639.743 1037.4 638.816C1039.97 638.598 1042.47 638.271 1045.04 638.053C1058.17 636.636 1070.76 634.837 1082.81 632.875C1085.37 632.438 1087.99 631.948 1090.5 631.512C1105.21 628.895 1118.95 625.788 1131.6 622.409C1134.16 621.645 1136.72 620.882 1139.23 620.174C1150.73 616.848 1161.2 613.196 1170.46 609.162C1173.13 608.018 1175.7 606.819 1178.15 605.674C1185.73 601.967 1192.32 598.151 1197.88 594.172C1200.72 592.046 1203.33 589.975 1205.57 587.849C1213.42 580.381 1217.62 572.531 1217.62 564.3V526.252C1217.62 534.429 1213.42 542.333 1205.57 549.801Z" fill="#EBDEDE"/>
</g>
<path d="M815.888 1139.84C807.707 1136.89 799.778 1133.43 792.038 1129.59L745.031 1071.13L754.533 1063.51L815.888 1139.84Z" fill="#AA7A06"/>
<g filter="url(#filter0_d_201_26)">
<path d="M955.342 934.058C955.342 939.092 955.216 944 954.902 948.971C954.713 953.125 954.398 957.152 953.895 961.116C953.014 970.052 951.693 978.862 949.868 987.483C949.05 991.636 948.169 995.664 947.162 999.691C942.82 1016.49 937.03 1032.6 929.668 1047.89C927.843 1052.05 925.766 1056.14 923.627 1060.04C918.467 1069.48 912.866 1078.54 906.636 1087.35C903.805 1091.5 900.784 1095.59 897.449 1099.56C890.212 1108.93 882.158 1117.81 873.474 1125.92C869.069 1130.27 864.538 1134.29 859.881 1138.07C848.932 1147.32 837.227 1155.56 824.956 1162.86C817.531 1167.39 809.854 1171.42 802.051 1175.01C767.818 1191.12 729.684 1200.05 689.41 1200.05H629V668H689.41C732.956 668 774.237 678.572 810.609 697.261C817.971 700.911 825.082 705.001 831.941 709.469C844.212 717.209 855.917 726.082 866.677 735.836C871.082 739.674 875.361 743.765 879.452 747.981C893.17 761.951 905.315 777.494 915.698 794.17C918.089 798.071 920.543 802.099 922.746 806.252C931.43 821.984 938.478 838.66 943.764 856.153C944.959 860.181 946.155 864.208 947.162 868.298C950.497 881.261 952.825 894.602 954.021 908.132C954.524 912.159 954.839 916.186 955.028 920.339C955.216 924.87 955.342 929.401 955.342 933.932V934.058Z" fill="#00A48C"/>
</g>
<path d="M954.961 948.858C954.772 953.012 954.457 957.039 953.954 961.003H879.699V948.858H954.961Z" fill="#00957F"/>
<path d="M949.924 987.43C949.106 991.583 948.225 995.61 947.218 999.638H855.91V987.43H949.924Z" fill="#00957F"/>
<path d="M929.661 1047.84C927.836 1052 925.76 1056.09 923.62 1059.99H833.76V1047.84H929.661Z" fill="#00957F"/>
<path d="M906.628 1087.3C903.796 1091.45 900.776 1095.54 897.441 1099.51H804.119V1087.3H906.565H906.628Z" fill="#00957F"/>
<path d="M873.531 1125.81C869.126 1130.15 864.595 1134.18 859.938 1137.96H772.595V1125.81H873.531Z" fill="#00957F"/>
<path d="M825.017 1162.75C817.591 1167.28 809.914 1171.31 802.111 1174.9H727.102V1162.75H825.017Z" fill="#00957F"/>
<path d="M955.016 920.413H874.595V908.205H954.009C954.513 912.232 954.827 916.26 955.016 920.413Z" fill="#00957F"/>
<path d="M947.149 868.372H865.406V856.227H943.688C944.884 860.255 946.079 864.282 947.086 868.372H947.149Z" fill="#00957F"/>
<path d="M922.739 806.263H840.808V794.181H915.691C918.083 798.083 920.537 802.11 922.739 806.263Z" fill="#00957F"/>
<path d="M879.443 747.993H788.261V735.848H866.668C871.073 739.686 875.352 743.777 879.443 747.993Z" fill="#00957F"/>
<path d="M831.944 709.417H743.594V697.209H810.612C817.974 700.859 825.085 704.95 831.944 709.417Z" fill="#00957F"/>
<path d="M894.989 933.932C894.989 1080.87 775.931 1199.93 628.995 1199.93C482.059 1199.93 363 1080.87 363 933.932C363 786.996 482.122 668 628.995 668C775.868 668 894.989 787.059 894.989 933.995V933.932Z" fill="#00F6D2"/>
<path d="M849.741 933.944C849.741 1055.9 750.882 1154.69 628.991 1154.69C507.101 1154.69 408.179 1055.9 408.179 933.944C408.179 811.991 507.038 713.195 628.991 713.195C750.945 713.195 849.741 812.054 849.741 933.944Z" fill="url(#paint2_radial_201_26)"/>
<path fill-rule="evenodd" clip-rule="evenodd" d="M633.048 789L770.043 1026.5H633.021V986.83L702.943 986.855L633.048 863.659V789Z" fill="white"/>
<path fill-rule="evenodd" clip-rule="evenodd" d="M632.995 789L496 1026.5H633.021V986.83L563.1 986.855L632.995 863.659V789Z" fill="white"/>
<path fill-rule="evenodd" clip-rule="evenodd" d="M633.023 894.242V972.375L589.68 972.462L633.023 894.242Z" fill="white"/>
<path fill-rule="evenodd" clip-rule="evenodd" d="M633.027 894.242V972.375L676.37 972.462L633.027 894.242Z" fill="white"/>
<path fill-rule="evenodd" clip-rule="evenodd" d="M642.163 925.649L496.007 862.079V935.157L642.163 932.192V925.649Z" fill="white"/>
<path fill-rule="evenodd" clip-rule="evenodd" d="M642.163 925.649L788.319 862.079V935.157L642.163 932.192V925.649Z" fill="white"/>
<path d="M647.429 1136.32C525.475 1136.32 426.616 1037.46 426.616 915.569C426.616 859.312 447.697 807.963 482.307 769.011C436.81 809.473 408.115 868.373 408.115 934.007C408.115 1055.96 506.974 1154.76 628.928 1154.76C694.624 1154.76 753.525 1126.06 793.987 1080.56C754.972 1115.24 703.686 1136.32 647.366 1136.32H647.429Z" fill="#063644"/>
<g opacity="0.7">
<path fill-rule="evenodd" clip-rule="evenodd" d="M1024.34 463.552L974.067 506.05L905.533 490.501L925.377 485.999L960.337 493.936L986.996 472.024L1024.34 463.552Z" fill="white"/>
<path fill-rule="evenodd" clip-rule="evenodd" d="M1024.31 463.546L837 474.952L905.533 490.501L925.377 485.999L890.392 478.067L986.97 472.019L1024.31 463.546Z" fill="white"/>
<path fill-rule="evenodd" clip-rule="evenodd" d="M971.687 475.492L932.607 484.359L910.885 479.45L971.687 475.492Z" fill="white"/>
<path fill-rule="evenodd" clip-rule="evenodd" d="M971.689 475.493L932.609 484.359L954.245 489.288L971.689 475.493Z" fill="white"/>
<path fill-rule="evenodd" clip-rule="evenodd" d="M960.55 480.093L919.243 456.294L882.692 464.587L957.277 480.836L960.55 480.093Z" fill="white"/>
<path fill-rule="evenodd" clip-rule="evenodd" d="M960.55 480.093L1065.45 489.465L1028.9 497.758L957.277 480.836L960.55 480.093Z" fill="white"/>
</g>
<defs>
<filter id="filter0_d_201_26" x="379" y="422" width="826.342" height="1032.05" filterUnits="userSpaceOnUse" color-interpolation-filters="sRGB">
<feFlood flood-opacity="0" result="BackgroundImageFix"/>
<feColorMatrix in="SourceAlpha" type="matrix" values="0 0 0 0 0 0 0 0 0 0 0 0 0 0 0 0 0 0 127 0" result="hardAlpha"/>
<feOffset dy="4"/>
<feGaussianBlur stdDeviation="125"/>
<feComposite in2="hardAlpha" operator="out"/>
<feColorMatrix type="matrix" values="0 0 0 0 0 0 0 0 0 0 0 0 0 0 0 0 0 0 1 0"/>
<feBlend mode="normal" in2="BackgroundImageFix" result="effect1_dropShadow_201_26"/>
<feBlend mode="normal" in="SourceGraphic" in2="effect1_dropShadow_201_26" result="shape"/>
</filter>
<radialGradient id="paint0_radial_201_26" cx="0" cy="0" r="1" gradientUnits="userSpaceOnUse" gradientTransform="translate(800 800) rotate(90) scale(800)">
<stop stop-color="#0B1624"/>
<stop offset="1" stop-color="#0B1624"/>
</radialGradient>
<radialGradient id="paint1_radial_201_26" cx="0" cy="0" r="1" gradientUnits="userSpaceOnUse" gradientTransform="translate(800 800) rotate(90) scale(651.975)">
<stop stop-color="#24C1FF"/>
<stop offset="1" stop-color="#24C1FF" stop-opacity="0"/>
</radialGradient>
<radialGradient id="paint2_radial_201_26" cx="0" cy="0" r="1" gradientUnits="userSpaceOnUse" gradientTransform="translate(628.96 933.944) rotate(90) scale(220.75 220.781)">
<stop stop-color="#076365"/>
<stop offset="1" stop-color="#0D4359"/>
</radialGradient>
</defs>
</svg>
